<?xml version="1.0" encoding="UTF-8" standalone="no"?>
<!-- Created with Inkscape (http://www.inkscape.org/) -->

<svg
   width="192"
   height="128"
   viewBox="0 0 192 128"
   version="1.1"
   id="svg1"
   inkscape:version="1.3.2 (091e20e, 2023-11-25, custom)"
   sodipodi:docname="icons_tilemap.svg"
   inkscape:export-filename="icons_tilemap.png"
   inkscape:export-xdpi="96"
   inkscape:export-ydpi="96"
   xmlns:inkscape="http://www.inkscape.org/namespaces/inkscape"
   xmlns:sodipodi="http://sodipodi.sourceforge.net/DTD/sodipodi-0.dtd"
   xmlns="http://www.w3.org/2000/svg"
   xmlns:svg="http://www.w3.org/2000/svg">
  <sodipodi:namedview
     id="namedview1"
     pagecolor="#ffffff"
     bordercolor="#999999"
     borderopacity="1"
     inkscape:showpageshadow="2"
     inkscape:pageopacity="0"
     inkscape:pagecheckerboard="0"
     inkscape:deskcolor="#d1d1d1"
     inkscape:document-units="px"
     showgrid="true"
     inkscape:zoom="4.0970529"
     inkscape:cx="97.997271"
     inkscape:cy="61.629666"
     inkscape:window-width="1920"
     inkscape:window-height="1009"
     inkscape:window-x="-8"
     inkscape:window-y="-8"
     inkscape:window-maximized="1"
     inkscape:current-layer="g25">
    <inkscape:grid
       id="grid1"
       units="px"
       originx="0"
       originy="0"
       spacingx="8"
       spacingy="8"
       empcolor="#e5009b"
       empopacity="0.75686275"
       color="#c000e5"
       opacity="0.56078431"
       empspacing="8"
       dotted="false"
       gridanglex="30"
       gridanglez="30"
       visible="true" />
  </sodipodi:namedview>
  <defs
     id="defs1" />
  <g
     inkscape:groupmode="layer"
     id="layer2"
     inkscape:label="Background">
    <path
       id="rect2"
       d="M 0,0 H 64 V 64 H 0 Z" />
    <path
       id="rect3"
       d="m 64,0 h 64 V 64 H 64 Z" />
    <path
       id="path24"
       d="m 128,0 h 64 v 64 h -64 z"
       inkscape:label="rect4" />
  </g>
  <g
     inkscape:label="Tiles"
     inkscape:groupmode="layer"
     id="layer1">
    <g
       id="g23"
       inkscape:label="heart">
      <path
         id="rect1"
         d="m 32,56 h 8 v 8 h -8 z"
         style="fill:#ffffff;fill-opacity:1" />
      <path
         id="rect1-4"
         d="m 24,56 h 8 v 8 h -8 z"
         style="fill:#ffffff;fill-opacity:1" />
      <path
         id="rect1-7"
         d="m 16,48 h 8 v 8 h -8 z"
         style="fill:#ffffff;fill-opacity:1" />
      <path
         id="rect1-5"
         d="m 8,40 h 8 v 8 H 8 Z"
         style="fill:#ffffff;fill-opacity:1" />
      <path
         id="rect1-8"
         d="m 16,0 h 8 v 8 h -8 z"
         style="fill:#ffffff;fill-opacity:1" />
      <path
         id="rect1-85"
         d="m 48,0 h 8 v 8 h -8 z"
         style="fill:#ffffff;fill-opacity:1" />
      <path
         id="rect1-64"
         d="m 48,40 h 8 v 8 h -8 z"
         style="fill:#ffffff;fill-opacity:1" />
      <path
         id="rect1-9"
         d="m 40,48 h 8 v 8 h -8 z"
         style="fill:#ffffff;fill-opacity:1" />
      <path
         id="rect1-55"
         d="m 8,0 h 8 V 8 H 8 Z"
         style="fill:#ffffff;fill-opacity:1" />
      <path
         id="rect1-703"
         d="m 24,7.9454298 h 8 V 15.94543 h -8 z"
         style="fill:#ffffff;fill-opacity:1" />
      <path
         id="rect1-2"
         d="m 32,7.9454298 h 8 V 15.94543 h -8 z"
         style="fill:#ffffff;fill-opacity:1" />
      <path
         id="rect1-554"
         d="m 40,0 h 8 v 8 h -8 z"
         style="fill:#ffffff;fill-opacity:1" />
      <path
         id="rect1-80"
         d="m 28,56 h 8 v 8 h -8 z"
         style="fill:#ffffff;fill-opacity:1" />
      <path
         id="rect1-02"
         d="m 56,24 h 8 v 8 h -8 z"
         style="fill:#ffffff;fill-opacity:1" />
      <path
         id="rect1-48"
         d="m 56,16 h 8 v 8 h -8 z"
         style="fill:#ffffff;fill-opacity:1" />
      <path
         id="rect1-47"
         d="m 56,8 h 8 v 8 h -8 z"
         style="fill:#ffffff;fill-opacity:1" />
      <path
         id="rect1-88"
         d="m 0,8 h 8 v 8 H 0 Z"
         style="fill:#ffffff;fill-opacity:1" />
      <path
         id="rect1-57"
         d="m 0,24 h 8 v 8 H 0 Z"
         style="fill:#ffffff;fill-opacity:1" />
      <path
         id="rect1-854"
         d="m 0,16 h 8 v 8 H 0 Z"
         style="fill:#ffffff;fill-opacity:1" />
      <path
         id="rect1-81"
         d="m 0,32 h 8 v 8 H 0 Z"
         style="fill:#ffffff;fill-opacity:1" />
      <path
         id="rect1-1"
         d="m 56,32 h 8 v 8 h -8 z"
         style="fill:#ffffff;fill-opacity:1" />
      <path
         id="path3"
         d="m 32,56 h 8 v 8 h -8 z"
         style="fill:#ffffff;fill-opacity:1" />
      <path
         id="path4"
         d="m 24,56 h 8 v 8 h -8 z"
         style="fill:#ffffff;fill-opacity:1" />
      <path
         id="path5"
         d="m 16,48 h 8 v 8 h -8 z"
         style="fill:#ffffff;fill-opacity:1" />
      <path
         id="path6"
         d="m 8,40 h 8 v 8 H 8 Z"
         style="fill:#ffffff;fill-opacity:1" />
      <path
         id="path7"
         d="m 16,0 h 8 v 8 h -8 z"
         style="fill:#ffffff;fill-opacity:1" />
      <path
         id="path8"
         d="m 48,0 h 8 v 8 h -8 z"
         style="fill:#ffffff;fill-opacity:1" />
      <path
         id="path9"
         d="m 48,40 h 8 v 8 h -8 z"
         style="fill:#ffffff;fill-opacity:1" />
      <path
         id="path10"
         d="m 40,48 h 8 v 8 h -8 z"
         style="fill:#ffffff;fill-opacity:1" />
      <path
         id="path11"
         d="m 8,0 h 8 V 8 H 8 Z"
         style="fill:#ffffff;fill-opacity:1" />
      <path
         id="path12"
         d="m 24,7.9454298 h 8 V 15.94543 h -8 z"
         style="fill:#ffffff;fill-opacity:1" />
      <path
         id="path13"
         d="m 32,7.9454298 h 8 V 15.94543 h -8 z"
         style="fill:#ffffff;fill-opacity:1" />
      <path
         id="path14"
         d="m 40,0 h 8 v 8 h -8 z"
         style="fill:#ffffff;fill-opacity:1" />
      <path
         id="path15"
         d="m 28,56 h 8 v 8 h -8 z"
         style="fill:#ffffff;fill-opacity:1" />
      <path
         id="path16"
         d="m 56,24 h 8 v 8 h -8 z"
         style="fill:#ffffff;fill-opacity:1" />
      <path
         id="path17"
         d="m 56,16 h 8 v 8 h -8 z"
         style="fill:#ffffff;fill-opacity:1" />
      <path
         id="path18"
         d="m 56,8 h 8 v 8 h -8 z"
         style="fill:#ffffff;fill-opacity:1" />
      <path
         id="path19"
         d="m 0,8 h 8 v 8 H 0 Z"
         style="fill:#ffffff;fill-opacity:1" />
      <path
         id="path20"
         d="m 0,24 h 8 v 8 H 0 Z"
         style="fill:#ffffff;fill-opacity:1" />
      <path
         id="path21"
         d="m 0,16 h 8 v 8 H 0 Z"
         style="fill:#ffffff;fill-opacity:1" />
      <path
         id="path22"
         d="m 0,32 h 8 v 8 H 0 Z"
         style="fill:#ffffff;fill-opacity:1" />
      <path
         id="path23"
         d="m 56,32 h 8 v 8 h -8 z"
         style="fill:#ffffff;fill-opacity:1" />
    </g>
    <g
       id="g24"
       inkscape:label="skull">
      <path
         id="path17-5-7-4"
         d="m 80,32 h 8 v 8 h -8 z"
         style="fill:#ffffff;fill-opacity:1" />
      <path
         id="path17-5-7-4-59"
         d="m 80,48 h 8 v 8 h -8 z"
         style="fill:#ffffff;fill-opacity:1" />
      <path
         id="path17-5-7-4-93"
         d="m 104,32 h 8 v 8 h -8 z"
         style="fill:#ffffff;fill-opacity:1" />
      <path
         id="path17-5-7-4-75"
         d="m 104,48 h 8 v 8 h -8 z"
         style="fill:#ffffff;fill-opacity:1" />
      <path
         id="path17-5-7-4-33"
         d="m 80,40 h 8 v 8 h -8 z"
         style="fill:#ffffff;fill-opacity:1" />
      <path
         id="path17-5-7-4-9"
         d="m 104,40 h 8 v 8 h -8 z"
         style="fill:#ffffff;fill-opacity:1" />
      <path
         id="path17-5-7-4-8"
         d="m 72,32 h 8 v 8 h -8 z"
         style="fill:#ffffff;fill-opacity:1" />
      <path
         id="path17-5-7-4-7"
         d="m 64,24 h 8 v 8 h -8 z"
         style="fill:#ffffff;fill-opacity:1" />
      <path
         id="path17-5-7-4-90"
         d="m 64,16 h 8 v 8 h -8 z"
         style="fill:#ffffff;fill-opacity:1" />
      <path
         id="path17-5-7-4-4"
         d="m 64,8 h 8 v 8 h -8 z"
         style="fill:#ffffff;fill-opacity:1" />
      <path
         id="path17-5-7-4-1"
         d="m 72,0 h 8 v 8 h -8 z"
         style="fill:#ffffff;fill-opacity:1" />
      <path
         id="path17-5-7-4-2"
         d="m 80,0 h 8 v 8 h -8 z"
         style="fill:#ffffff;fill-opacity:1" />
      <path
         id="path17-5-7-4-25"
         d="m 88,0 h 8 v 8 h -8 z"
         style="fill:#ffffff;fill-opacity:1" />
      <path
         id="path17-5-7-4-6"
         d="m 96,0 h 8 v 8 h -8 z"
         style="fill:#ffffff;fill-opacity:1" />
      <path
         id="path17-5-7-4-81"
         d="m 104,0 h 8 v 8 h -8 z"
         style="fill:#ffffff;fill-opacity:1" />
      <path
         id="path17-5-7-4-5"
         d="m 112,0 h 8 v 8 h -8 z"
         style="fill:#ffffff;fill-opacity:1" />
      <path
         id="path17-5-7-4-31"
         d="m 120,8 h 8 v 8 h -8 z"
         style="fill:#ffffff;fill-opacity:1" />
      <path
         id="path17-5-7-4-38"
         d="m 120,16 h 8 v 8 h -8 z"
         style="fill:#ffffff;fill-opacity:1" />
      <path
         id="path17-5-7-4-22"
         d="m 120,24 h 8 v 8 h -8 z"
         style="fill:#ffffff;fill-opacity:1" />
      <path
         id="path17-5-7-4-11"
         d="m 112,32 h 8 v 8 h -8 z"
         style="fill:#ffffff;fill-opacity:1" />
      <path
         id="path17-5-7-4-20"
         d="m 80,16 h 8 v 8 h -8 z"
         style="fill:#ffffff;fill-opacity:1" />
      <path
         id="path17-5-7-4-86"
         d="m 104,16 h 8 v 8 h -8 z"
         style="fill:#ffffff;fill-opacity:1" />
      <path
         id="path17-5-7-4-17"
         d="m 88,48 h 8 v 8 h -8 z"
         style="fill:#ffffff;fill-opacity:1" />
      <path
         id="path17-5-7-4-56"
         d="m 96,48 h 8 v 8 h -8 z"
         style="fill:#ffffff;fill-opacity:1" />
      <path
         id="path17-5-7-4-80"
         d="m 120,48 h 8 v 8 h -8 z"
         style="fill:#ffffff;fill-opacity:1" />
      <path
         id="path17-5-7-4-3"
         d="m 112,56 h 8 v 8 h -8 z"
         style="fill:#ffffff;fill-opacity:1" />
      <path
         id="path17-5-7-4-98"
         d="m 64,48 h 8 v 8 h -8 z"
         style="fill:#ffffff;fill-opacity:1" />
      <path
         id="path17-5-7-4-46"
         d="m 72,56 h 8 v 8 h -8 z"
         style="fill:#ffffff;fill-opacity:1" />
    </g>
    <g
       id="g25"
       inkscape:label="friend">
      <path
         id="path17-5-7-4-38-9"
         d="m 144,16 h 8 v 8 h -8 z"
         style="fill:#ffffff;fill-opacity:1" />
      <path
         id="path17-5-7-4-38-6"
         d="m 144,32 h 8 v 8 h -8 z"
         style="fill:#ffffff;fill-opacity:1" />
      <path
         id="path17-5-7-4-38-3"
         d="m 152,40 h 8 v 8 h -8 z"
         style="fill:#ffffff;fill-opacity:1" />
      <path
         id="path17-5-7-4-38-2"
         d="m 128,8 h 8 v 8 h -8 z"
         style="fill:#ffffff;fill-opacity:1" />
      <path
         id="path17-5-7-4-38-4"
         d="m 136,0 h 8 v 8 h -8 z"
         style="fill:#ffffff;fill-opacity:1" />
      <path
         id="path17-5-7-4-38-5"
         d="m 168,0 h 8 v 8 h -8 z"
         style="fill:#ffffff;fill-opacity:1" />
      <path
         id="path17-5-7-4-38-52"
         d="m 184,16 h 8 v 8 h -8 z"
         style="fill:#ffffff;fill-opacity:1" />
      <path
         id="path17-5-7-4-38-55"
         d="m 144,0 h 8 v 8 h -8 z"
         style="fill:#ffffff;fill-opacity:1" />
      <path
         id="path17-5-7-4-38-0"
         d="m 152,0 h 8 v 8 h -8 z"
         style="fill:#ffffff;fill-opacity:1" />
      <path
         id="path17-5-7-4-38-91"
         d="m 160,0 h 8 v 8 h -8 z"
         style="fill:#ffffff;fill-opacity:1" />
      <path
         id="path17-5-7-4-38-43"
         d="m 128,16 h 8 v 8 h -8 z"
         style="fill:#ffffff;fill-opacity:1" />
      <path
         id="path17-5-7-4-38-14"
         d="m 128,24 h 8 v 8 h -8 z"
         style="fill:#ffffff;fill-opacity:1" />
      <path
         id="path17-5-7-4-38-685"
         d="m 128,32 h 8 v 8 h -8 z"
         style="fill:#ffffff;fill-opacity:1" />
      <path
         id="path17-5-7-4-38-93"
         d="m 128,40 h 8 v 8 h -8 z"
         style="fill:#ffffff;fill-opacity:1" />
      <path
         id="path17-5-7-4-38-31"
         d="m 128,48 h 8 v 8 h -8 z"
         style="fill:#ffffff;fill-opacity:1" />
      <path
         id="path17-5-7-4-38-09"
         d="m 136,56 h 8 v 8 h -8 z"
         style="fill:#ffffff;fill-opacity:1" />
      <path
         id="path17-5-7-4-38-18"
         d="m 144,56 h 8 v 8 h -8 z"
         style="fill:#ffffff;fill-opacity:1" />
      <path
         id="path17-5-7-4-38-98"
         d="m 152,56 h 8 v 8 h -8 z"
         style="fill:#ffffff;fill-opacity:1" />
      <path
         id="path17-5-7-4-38-7"
         d="m 160,56 h 8 v 8 h -8 z"
         style="fill:#ffffff;fill-opacity:1" />
      <path
         id="path17-5-7-4-38-526"
         d="m 168,56 h 8 v 8 h -8 z"
         style="fill:#ffffff;fill-opacity:1" />
      <path
         id="path17-5-7-4-38-08"
         d="m 176,56 h 8 v 8 h -8 z"
         style="fill:#ffffff;fill-opacity:1" />
      <path
         id="path17-5-7-4-38-41"
         d="m 184,48 h 8 v 8 h -8 z"
         style="fill:#ffffff;fill-opacity:1" />
      <path
         id="path17-5-7-4-38-25"
         d="m 184,40 h 8 v 8 h -8 z"
         style="fill:#ffffff;fill-opacity:1" />
      <path
         id="path17-5-7-4-38-23"
         d="m 184,32 h 8 v 8 h -8 z"
         style="fill:#ffffff;fill-opacity:1" />
      <path
         id="path17-5-7-4-38-72"
         d="m 184,24 h 8 v 8 h -8 z"
         style="fill:#ffffff;fill-opacity:1" />
      <path
         id="path17-5-7-4-38-53"
         d="m 160,40 h 8 v 8 h -8 z"
         style="fill:#ffffff;fill-opacity:1" />
      <path
         id="path17-5-7-4-38-8"
         d="m 168,32 h 8 v 8 h -8 z"
         style="fill:#ffffff;fill-opacity:1" />
      <path
         id="path17-5-7-4-38-39"
         d="m 168,16 h 8 v 8 h -8 z"
         style="fill:#ffffff;fill-opacity:1" />
      <path
         id="path17-5-7-4-38-1"
         d="m 176,0 h 8 v 8 h -8 z"
         style="fill:#ffffff;fill-opacity:1" />
      <path
         id="path17-5-7-4-38-74"
         d="m 184,8 h 8 v 8 h -8 z"
         style="fill:#ffffff;fill-opacity:1" />
    </g>
  </g>
</svg>
